<svg width="39" height="49" viewBox="0 0 39 49" fill="none" xmlns="http://www.w3.org/2000/svg">
<path d="M25.4547 7.3745C25.6351 7.18356 25.7762 6.95894 25.8698 6.71349C25.9634 6.46803 26.0078 6.20653 26.0004 5.94393C25.993 5.68133 25.9339 5.42276 25.8265 5.18298C25.7192 4.94321 25.5656 4.72693 25.3747 4.5465C25.1837 4.36606 24.9591 4.225 24.7137 4.13137C24.4682 4.03774 24.2067 3.99337 23.9441 4.0008C23.6815 4.00823 23.4229 4.06731 23.1832 4.17467C22.9434 4.28202 22.7271 4.43556 22.5467 4.6265L5.54669 22.6265C5.19561 22.9978 5 23.4895 5 24.0005C5 24.5115 5.19561 25.0032 5.54669 25.3745L22.5467 43.3765C22.7259 43.5716 22.9422 43.7292 23.1828 43.84C23.4235 43.9509 23.6837 44.0128 23.9485 44.0222C24.2133 44.0316 24.4773 43.9883 24.7253 43.8948C24.9732 43.8013 25.2 43.6595 25.3927 43.4776C25.5853 43.2957 25.7399 43.0773 25.8474 42.8352C25.955 42.593 26.0133 42.3319 26.0191 42.067C26.0248 41.8021 25.9779 41.5387 25.881 41.2921C25.7841 41.0455 25.6392 40.8206 25.4547 40.6305L9.75069 24.0005L25.4547 7.3745Z" fill="black"/>
</svg>
