<svg width="184" height="151" viewBox="0 0 184 151" fill="none" xmlns="http://www.w3.org/2000/svg">
<path d="M183.634 1.11C181.924 2.72 180.264 4.4 178.484 5.94C161.994 20.23 145.494 34.5 128.994 48.77C124.804 52.39 120.774 56.24 116.364 59.57C91.7441 78.2 69.4141 99.48 46.2841 119.83C39.7941 125.54 33.0341 130.97 26.2641 136.35C24.0241 138.13 22.0741 139.87 21.3841 142.77C21.1541 143.76 20.6241 144.72 20.0641 145.58C17.4841 149.53 12.6141 151.44 8.36405 150.23C3.73405 148.91 0.534054 145.22 0.0540545 140.63C-0.405946 136.29 2.09405 131.11 6.63405 129.94C16.8041 127.34 24.0241 120.26 32.1441 114.5C33.5541 113.5 34.9141 112.42 36.2741 111.35C58.6141 93.82 80.7841 76.07 103.334 58.82C127.534 40.31 152.094 22.28 176.514 4.06C178.434 2.63 180.474 1.35 182.464 0C182.864 0.37 183.254 0.73 183.654 1.1L183.634 1.11Z" fill="white"/>
</svg>
