<svg width="246" height="245" viewBox="0 0 246 245" fill="none" xmlns="http://www.w3.org/2000/svg">
<path d="M136.985 132.833C135.709 134.041 134.471 135.302 133.143 136.457C120.842 147.18 108.534 157.888 96.2254 168.596C93.0998 171.312 90.0935 174.201 86.8038 176.7C68.4381 190.68 51.7806 206.648 34.5264 221.918C29.6851 226.203 24.6423 230.277 19.5921 234.314C17.9212 235.65 16.4665 236.956 15.9518 239.132C15.7802 239.875 15.3849 240.595 14.9671 241.24C13.0425 244.204 9.40968 245.638 6.23932 244.73C2.78548 243.739 0.398387 240.97 0.0403229 237.526C-0.302822 234.269 1.5621 230.382 4.94879 229.504C12.5353 227.553 17.9212 222.241 23.9784 217.919C25.0302 217.168 26.0448 216.358 27.0593 215.555C43.7242 202.401 60.2623 189.081 77.0839 176.137C95.1363 162.248 113.457 148.718 131.674 135.047C133.106 133.974 134.628 133.013 136.112 132C136.411 132.278 136.702 132.548 137 132.825L136.985 132.833Z" fill="white"/>
<path d="M245.634 1.11C243.924 2.72 242.264 4.4 240.484 5.94C223.994 20.23 207.494 34.5 190.994 48.77C186.804 52.39 182.774 56.24 178.364 59.57C153.744 78.2 131.414 99.48 108.284 119.83C101.794 125.54 95.0341 130.97 88.2641 136.35C86.0241 138.13 84.0741 139.87 83.3841 142.77C83.1541 143.76 82.6241 144.72 82.0641 145.58C79.4841 149.53 74.6141 151.44 70.3641 150.23C65.7341 148.91 62.5341 145.22 62.0541 140.63C61.5941 136.29 64.0941 131.11 68.6341 129.94C78.8041 127.34 86.0241 120.26 94.1441 114.5C95.5541 113.5 96.9141 112.42 98.2741 111.35C120.614 93.82 142.784 76.07 165.334 58.82C189.534 40.31 214.094 22.28 238.514 4.06C240.434 2.63 242.474 1.35 244.464 0C244.864 0.37 245.254 0.73 245.654 1.1L245.634 1.11Z" fill="white"/>
</svg>
