<?xml version="1.0" encoding="UTF-8"?>
<svg id="_레이어_1" data-name="레이어 1" xmlns="http://www.w3.org/2000/svg" version="1.1" viewBox="0 0 188 189" fill="current">
  <defs>
    <style>
      .cls-1 {
        stroke-width: 0px;
      }
    </style>
  </defs>
  <path class="cls-1" d="M91.18,189.42C45.16,189.47-1.45,149.34-.2,93.29.5,61.54,14.27,36.62,40.03,18,52.93,8.68,66.77,2.53,82.69.49c46.6-5.96,91.03,24.11,102.43,69.75,13.33,53.33-20.24,106.51-74.21,117.25-6.45,1.28-13.14,1.32-19.72,1.93ZM137.32,82.68c-1.55-4.41-3.06-8.7-4.7-13.37-2.73.32-4.99.91-7.21.78-3.83-.22-7.74-.48-11.41-1.49-3.4-.94-5.14-5.32-3.78-8.68.86-2.11,2.18-4.11,3.65-5.87,1.97-2.35,4.28-4.41,6.67-6.83-3.52-6.01-7.55-10.89-13.17-13.32-10.2,4.92-19.58,9.59-29.09,14-5.33,2.47-10.94,4.13-16.95,3.3-5.48-.76-8.12-4.51-7.02-9.95,1.14-5.62,4.52-9.91,8.83-13.37,3.62-2.91,7.68-5.29,11.46-8.01,1.1-.79,1.91-1.97,4.05-4.24-12.18,1.74-22.63,3.6-31.42,9.52-18.45,12.43-31.19,29.22-35.21,51.54-1.3,7.22-1.64,14.71-1.63,22.07.04,24.42,9.6,44.65,28.36,60.2,13.13,10.89,27.81,18.35,45.55,18.42,17.81.06,34.14-10.7,41.73-28.32-3.01-.67-6.09-1.04-8.94-2.05-4-1.42-6.01-5.3-4.77-9.38.77-2.53,1.92-5.35,3.79-7.05,3.98-3.63,8.44-6.77,12.91-9.8,2.49-1.69,5.41-2.75,8.19-4.11.76-5.32,1.46-10.2,2.19-15.32,3.98-.71,7.45-1.12,10.8-1.97,4.97-1.26,9.56-3.31,12.53-7.87,1.89-2.9,1.31-6.06-1.35-8.27-2.93-2.43-6.41-2.91-9.9-2.61-4.56.39-9.08,1.3-14.18,2.07ZM153.33,138.17c-5.62.84-11.68,1.89-15.38,7.83-1.88,3.02-.58,6.46,2.85,7.2,6.48,1.39,12.24-.04,17.1-4.63,1.74-1.64,2.94-3.54,2.19-6.13-.72-2.48-3.24-4.25-6.76-4.27ZM126.45,33.44c1.19.87,2.76,2.94,4.54,3.14,5.36.6,11.22-4.94,11.58-10.46.14-2.19-1.24-3.75-3.28-4.09-5.85-.98-12.78,4.75-12.85,11.41ZM101.64,18.63c-4.3-2.33-8.08-1.19-11.27,2.01-.87.87-1.34,2.94-.93,4.06.4,1.08,2.17,2.27,3.37,2.31,5.07.17,6.87-1.66,8.82-8.37ZM151.56,58.32c3.68-.11,5.64-1.68,5.86-3.95.19-1.93-1.66-3.81-3.6-3.54-2.45.34-4.78,1.45-4.85,4.03-.04,1.28,1.9,2.61,2.59,3.46ZM170.09,112.78c-.27-2.89-3.09-4.23-5.39-3.27-1.81.76-3.28,2.04-2.64,4.25.68,2.33,2.85,2.45,4.54,1.82,1.47-.55,2.59-2.05,3.48-2.81Z"/>
  <path class="cls-1" d="M67.62,128.64c-1.98-.3-3.53-.44-5.03-.79-5.73-1.35-7.99-6.63-4.97-11.59.6-.99,1.3-1.95,2.13-2.75,8.87-8.43,19.21-14.26,31.05-17.38,4.74-1.25,9.25.13,13.64,1.53,3.93,1.25,5.42,5.74,3.51,9.6-.68,1.37-1.5,2.76-2.56,3.84-10.48,10.73-23.5,15.91-37.78,17.53Z"/>
  <path class="cls-1" d="M80.69,143.54c1.45.15,2.79-.05,3.72.47,1.59.89,3.74,2.02,4.11,3.46.36,1.41-.74,3.84-1.99,4.92-4.78,4.12-10.57,6.4-16.69,7.73-1.47.32-3.09.18-4.62.02-2.55-.27-4.58-1.77-4.88-4.22-.2-1.69.46-3.94,1.56-5.24,3.41-4.02,8.32-5.49,13.28-6.58,1.88-.41,3.85-.4,5.5-.56Z"/>
  <path class="cls-1" d="M72.99,66.79c1.42.27,2.57.39,3.67.7,3.09.88,4.52,4.81,2.77,7.46-3.37,5.11-12.44,9.04-18.24,7.49-1.67-.44-3.56-1.84-4.37-3.33-1.19-2.2-.13-4.54,1.71-6.2,4.17-3.75,9.38-5.06,14.45-6.13Z"/>
  <path class="cls-1" d="M38.21,109.84c.76.49,1.46,1.98,1.29,2.85-.68,3.67-4.3,6.32-9.11,6.48"/>
  <path class="cls-1" d="M37.35,68.07c-1.61,3.37-4.71,4.68-8.6,4.8-.71-.74-1.8-1.41-2.12-2.35"/>
</svg>