<svg width="42" height="42" viewBox="0 0 42 42" fill="current" xmlns="http://www.w3.org/2000/svg">
<path d="M36.8135 9.99739C34.0165 9.91284 31.9631 7.75195 32.0005 4.9381C32.0426 1.93634 34.4 -0.201061 37.4309 0.0150277C40.2093 0.212326 42.1457 2.46247 41.9914 5.30451C41.837 8.09957 39.648 10.082 36.8135 9.99739Z" fill="current"/>
<path d="M23.9954 11.4326C21.599 12.9005 18.9876 13.3052 16.6929 14.1241C15.824 15.1802 15.059 16.1141 14.1786 17.1845C13.7233 19.3062 13.8504 21.7128 13.3697 23.9901C12.7828 24.0644 12.6996 23.7052 12.6557 23.3963C12.4431 21.9235 12.0987 20.446 12.1057 18.9733C12.1172 16.9953 10.9872 15.7693 9.79475 14.5696C9.44118 14.2128 8.78256 14.105 8.24412 14.0403C6.81597 13.8679 5.37626 13.7913 3.94349 13.6572C3.4813 13.6141 3.02374 13.5159 2 13.3531C3.10924 12.9603 3.68004 12.7281 4.26702 12.5604C5.03424 12.3401 5.81534 12.1677 6.59181 11.9809C8.56765 11.5092 10.4256 10.8363 11.4447 8.88703C11.9578 6.68634 12.4592 4.52157 12.9815 2.36159C13.0092 2.24904 13.2265 2.18439 13.5015 2C13.7372 3.69781 13.9567 5.32378 14.1878 6.94736C14.5576 9.54317 15.1468 10.1897 17.6034 10.592C18.8651 10.798 20.1384 10.9297 21.4071 11.0949C22.2714 11.2075 23.1357 11.32 24 11.4302L23.9954 11.4326Z" fill="current"/>
<path d="M4.81353 9.99739C2.01645 9.91284 -0.0369158 7.75195 0.000503239 4.9381C0.0425997 1.93634 2.4 -0.201061 5.43094 0.0150277C8.20931 0.212326 10.1457 2.46247 9.99139 5.30451C9.83704 8.09957 7.64802 10.082 4.81353 9.99739Z" fill="current"/>
<path d="M4.88812 23.9984C3.20987 23.9477 1.97785 22.6512 2.0003 20.9629C2.02556 19.1618 3.44 17.8794 5.25857 18.009C6.92558 18.1274 8.08745 19.4775 7.99483 21.1827C7.90222 22.8597 6.58881 24.0492 4.88812 23.9984Z" fill="current"/>
<path d="M20.8881 7.99844C19.2099 7.9477 17.9779 6.65117 18.0003 4.96286C18.0256 3.1618 19.44 1.87936 21.2586 2.00902C22.9256 2.1274 24.0874 3.47748 23.9948 5.1827C23.9022 6.85974 22.5888 8.04917 20.8881 7.99844Z" fill="current"/>
<path d="M4.81353 41.9974C2.01645 41.9128 -0.0369158 39.7519 0.000503239 36.9381C0.0425997 33.9363 2.4 31.7989 5.43094 32.015C8.20931 32.2123 10.1457 34.4625 9.99139 37.3045C9.83704 40.0996 7.64802 42.082 4.81353 41.9974Z" fill="current"/>
<path d="M36.8135 41.9974C34.0165 41.9128 31.9631 39.7519 32.0005 36.9381C32.0426 33.9363 34.4 31.7989 37.4309 32.015C40.2093 32.2123 42.1457 34.4625 41.9914 37.3045C41.837 40.0996 39.648 42.082 36.8135 41.9974Z" fill="current"/>
<path d="M20.8135 41.9974C18.0165 41.9128 15.9631 39.7519 16.0005 36.9381C16.0426 33.9363 18.4 31.7989 21.4309 32.015C24.2093 32.2123 26.1457 34.4625 25.9914 37.3045C25.837 40.0996 23.648 42.082 20.8135 41.9974Z" fill="current"/>
<path d="M36.8135 25.9974C34.0165 25.9128 31.9631 23.7519 32.0005 20.9381C32.0426 17.9363 34.4 15.7989 37.4309 16.015C40.2093 16.2123 42.1457 18.4625 41.9914 21.3045C41.837 24.0996 39.648 26.082 36.8135 25.9974Z" fill="current"/>
<path d="M20.8135 25.9974C18.0165 25.9128 15.9631 23.7519 16.0005 20.9381C16.0426 17.9363 18.4 15.7989 21.4309 16.015C24.2093 16.2123 26.1457 18.4625 25.9914 21.3045C25.837 24.0996 23.648 26.082 20.8135 25.9974Z" fill="current"/>
</svg>
