<svg width="96" height="92" viewBox="0 0 96 92" fill="none" xmlns="http://www.w3.org/2000/svg">
<path d="M95.18 39.39C84.81 45.52 73.51 47.21 63.58 50.63C59.82 55.04 56.51 58.94 52.7 63.41C50.73 72.27 51.28 82.32 49.2 91.83C46.66 92.14 46.3 90.64 46.11 89.35C45.19 83.2 43.7 77.03 43.73 70.88C43.78 62.62 38.89 57.5 33.73 52.49C32.2 51 29.35 50.55 27.02 50.28C20.84 49.56 14.61 49.24 8.41 48.68C6.41 48.5 4.43 48.09 0 47.41C4.8 45.77 7.27 44.8 9.81 44.1C13.13 43.18 16.51 42.46 19.87 41.68C28.42 39.71 36.46 36.9 40.87 28.76C43.09 19.57 45.26 10.53 47.52 1.51C47.64 1.04 48.58 0.77 49.77 0C50.79 7.09 51.74 13.88 52.74 20.66C54.34 31.5 56.89 34.2 67.52 35.88C72.98 36.74 78.49 37.29 83.98 37.98C87.72 38.45 91.46 38.92 95.2 39.38L95.18 39.39Z" fill="white"/>
</svg>
