<svg width="25" height="24" viewBox="0 0 25 24" fill="none" xmlns="http://www.w3.org/2000/svg">
<g id="octicon:eye-24" clip-path="url(#clip0_25_2779)">
<path id="Vector" d="M15.8333 12C15.8333 12.4596 15.7428 12.9148 15.5669 13.3394C15.391 13.764 15.1332 14.1499 14.8082 14.4749C14.4832 14.7999 14.0973 15.0577 13.6727 15.2336C13.2481 15.4095 12.7929 15.5 12.3333 15.5C11.8737 15.5 11.4186 15.4095 10.9939 15.2336C10.5693 15.0577 10.1834 14.7999 9.85844 14.4749C9.53343 14.1499 9.27563 13.764 9.09973 13.3394C8.92384 12.9148 8.83331 12.4596 8.83331 12C8.83331 11.0717 9.20206 10.1815 9.85844 9.52513C10.5148 8.86875 11.4051 8.5 12.3333 8.5C13.2616 8.5 14.1518 8.86875 14.8082 9.52513C15.4646 10.1815 15.8333 11.0717 15.8333 12Z" fill="white"/>
<path id="Vector_2" d="M12.3333 3.5C15.7653 3.5 18.4573 5.034 20.3873 6.741C22.3133 8.444 23.5193 10.351 24.0033 11.201C24.1434 11.444 24.2171 11.7195 24.2171 12C24.2171 12.2805 24.1434 12.556 24.0033 12.799C23.5193 13.649 22.3133 15.556 20.3873 17.26C18.4583 18.966 15.7653 20.5 12.3333 20.5C8.90131 20.5 6.20931 18.966 4.27931 17.26C2.35331 15.558 1.14731 13.65 0.663306 12.8C0.523248 12.557 0.449524 12.2815 0.449524 12.001C0.449524 11.7205 0.523248 11.445 0.663306 11.202C1.14731 10.352 2.35331 8.445 4.27931 6.74C6.20831 5.034 8.90131 3.5 12.3333 3.5ZM1.96631 11.945C1.95537 11.9613 1.94946 11.9804 1.94931 12C1.94997 12.02 1.95564 12.0387 1.96631 12.056C2.40731 12.83 3.51731 14.583 5.27331 16.136C7.02431 17.685 9.37831 19 12.3333 19C15.2883 19 17.6433 17.685 19.3933 16.136C21.1493 14.583 22.2593 12.83 22.7003 12.056C22.7114 12.0394 22.7174 12.0199 22.7173 12C22.7174 11.9801 22.7114 11.9606 22.7003 11.944C22.2593 11.171 21.1493 9.417 19.3933 7.864C17.6423 6.315 15.2883 5 12.3333 5C9.37831 5 7.02331 6.314 5.27331 7.865C3.51731 9.417 2.40731 11.171 1.96631 11.945Z" fill="white"/>
</g>
<defs>
<clipPath id="clip0_25_2779">
<rect width="24" height="24" fill="white" transform="translate(0.333313)"/>
</clipPath>
</defs>
</svg>
